<?xml version="1.0" encoding="UTF-8" standalone="no"?>
<svg width="1273.549853515625px" height="74px"
  xmlns="http://www.w3.org/2000/svg" viewBox="-386.7749267578125 38 1273.549853515625 74" style="background:#051103" preserveAspectRatio="xMidYMid">
  <defs>
    <linearGradient id="editing-glowing-gradient" x1="0.8146601955249185" x2="0.18533980447508147" y1="0.8885729807284856" y2="0.11142701927151444">
      <stop offset="0" stop-color="#67ff43"></stop>
      <stop offset="1" stop-color="#90ffff"></stop>
    </linearGradient>
    <filter id="editing-glowing" x="-100%" y="-100%" width="300%" height="300%">
      <feGaussianBlur in="SourceGraphic" result="blur" stdDeviation="10"></feGaussianBlur>
      <feMerge>
        <feMergeNode in="blur"></feMergeNode>
        <feMergeNode in="SourceGraphic"></feMergeNode>
      </feMerge>
    </filter>
  </defs>
  <g filter="url(#editing-glowing)">
    <g transform="translate(-210.93954773247242, 87.59500122070312)">
      <path d="M16.05-18.02L16.05-18.02L16.05-18.02Q13.29-18.02 11.29-18.94L11.29-18.94L10.20-13.43L16.76-13.43L16.76-13.43Q16.76-11.63 15.86-10.49L15.86-10.49L15.86-10.49Q14.96-9.35 13.33-9.35L13.33-9.35L13.33-9.35Q11.56-9.35 9.93-10.00L9.93-10.00L9.93-10.00Q9.59-10.13 9.55-10.17L9.55-10.17L7.62 0L0.20 0L4.52-22.44L19.69-22.44L19.69-22.44Q19.69-20.37 18.72-19.19L18.72-19.19L18.72-19.19Q17.75-18.02 16.05-18.02ZM33.05-5.24L33.05-5.24L33.05-5.24Q33.69-4.42 33.69-2.84L33.69-2.84L33.69-2.84Q33.69-1.26 32.49-0.29L32.49-0.29L32.49-0.29Q31.28 0.68 29.17 0.68L29.17 0.68L29.17 0.68Q27.95 0.68 26.04 0.41L26.04 0.41L26.04 0.41Q22.30-0.17 21.23-0.17L21.23-0.17L21.23-0.17Q20.16-0.17 19.72-0.12L19.72-0.12L19.72-0.12Q19.28-0.07 18.56 0L18.56 0L22.68-22.44L30.12-22.44L26.72-3.74L26.72-3.74Q27.17-3.67 27.57-3.67L27.57-3.67L28.42-3.67L28.42-3.67Q31.28-3.67 33.05-5.24ZM50.90 0.68L50.90 0.68L50.90 0.68Q46.55 0.68 46.14-5.51L46.14-5.51L40.29-5.51L40.29-5.51Q39.61-3.94 39.13-2.58L39.13-2.58L38.25 0L33.49 0L44.20-22.44L51.51-22.44L52.94-5.92L52.94-5.92Q53.28-2.35 54.64-1.29L54.64-1.29L54.64-1.29Q53.65 0.68 50.90 0.68ZM43.21-12.31L41.34-7.99L46.04-7.99L45.63-16.73L45.63-17.65L43.21-12.31ZM70.01-10.95L76.87-11.56L76.87-11.56Q74.43-6.19 74.43 0.03L74.43 0.03L74.43 0.03Q73.51 0.68 72.17 0.68L72.17 0.68L72.17 0.68Q70.82 0.68 69.97 0.05L69.97 0.05L69.97 0.05Q69.12-0.58 68.95-1.22L68.95-1.22L68.95-1.22Q68.10-0.34 66.73 0.17L66.73 0.17L66.73 0.17Q65.35 0.68 63.89 0.68L63.89 0.68L63.89 0.68Q62.42 0.68 61.15 0.20L61.15 0.20L61.15 0.20Q59.87-0.27 58.89-1.33L58.89-1.33L58.89-1.33Q56.71-3.64 56.71-8.02L56.71-8.02L56.71-8.02Q56.71-14.82 60.35-18.90L60.35-18.90L60.35-18.90Q64.09-23.12 70.72-23.12L70.72-23.12L70.72-23.12Q75.31-23.12 76.94-20.74L76.94-20.74L76.94-20.74Q77.45-19.99 77.45-19.09L77.45-19.09L77.45-19.09Q77.45-18.19 77.06-17.43L77.06-17.43L77.06-17.43Q76.67-16.66 76.06-16.05L76.06-16.05L76.06-16.05Q74.60-14.69 72.79-14.69L72.79-14.69L72.79-14.69Q72.08-14.69 71.40-14.93L71.40-14.93L71.40-14.93Q71.54-15.95 71.54-17.14L71.54-17.14L71.54-17.14Q71.54-18.33 71.45-18.87L71.45-18.87L71.45-18.87Q71.37-19.41 71.16-19.86L71.16-19.86L71.16-19.86Q70.72-20.77 69.75-20.77L69.75-20.77L69.75-20.77Q68.78-20.77 67.71-19.74L67.71-19.74L67.71-19.74Q66.64-18.70 65.79-17L65.79-17L65.79-17Q63.92-13.19 63.92-8.60L63.92-8.60L63.92-8.60Q63.92-6.49 64.74-5.00L64.74-5.00L64.74-5.00Q65.62-3.37 67.18-3.37L67.18-3.37L67.18-3.37Q67.73-3.37 68.22-3.64L68.22-3.64L68.22-3.64Q68.71-3.91 68.92-4.11L68.92-4.11L70.01-10.95ZM92.58 0L85.17 0L89.49-22.44L96.97-22.44L92.58 0ZM110.98-15.71L110.98-15.71L110.98-15.71Q111.49-16.73 111.49-17.68L111.49-17.68L111.49-17.68Q111.49-18.63 111.38-19.16L111.38-19.16L111.38-19.16Q111.28-19.69 111.04-20.09L111.04-20.09L111.04-20.09Q110.53-20.98 109.51-20.98L109.51-20.98L109.51-20.98Q108.26-20.98 107.24-20.06L107.24-20.06L107.24-20.06Q106.15-19.11 106.15-17.61L106.15-17.61L106.15-17.61Q106.15-16.66 106.81-15.93L106.81-15.93L106.81-15.93Q107.47-15.20 108.49-14.52L108.49-14.52L108.49-14.52Q109.51-13.84 110.67-13.16L110.67-13.16L110.67-13.16Q111.83-12.48 112.85-11.66L112.85-11.66L112.85-11.66Q115.19-9.79 115.19-7.28L115.19-7.28L115.19-7.28Q115.19-5.58 114.29-4.13L114.29-4.13L114.29-4.13Q113.39-2.69 111.89-1.63L111.89-1.63L111.89-1.63Q108.63 0.68 104.31 0.68L104.31 0.68L104.31 0.68Q100.81 0.68 99.01-0.46L99.01-0.46L99.01-0.46Q97.21-1.60 97.21-3.33L97.21-3.33L97.21-3.33Q97.21-6.43 99.62-7.21L99.62-7.21L99.62-7.21Q100.30-7.45 101.34-7.45L101.34-7.45L101.34-7.45Q102.37-7.45 103.56-7.00L103.56-7.00L103.56-7.00Q103.02-5.61 103.02-4.35L103.02-4.35L103.02-4.35Q103.02-1.63 104.96-1.63L104.96-1.63L104.96-1.63Q106.22-1.63 107.25-2.55L107.25-2.55L107.25-2.55Q108.29-3.47 108.29-4.50L108.29-4.50L108.29-4.50Q108.29-5.54 107.63-6.29L107.63-6.29L107.63-6.29Q106.96-7.04 105.98-7.63L105.98-7.63L105.98-7.63Q104.99-8.23 103.85-8.81L103.85-8.81L103.85-8.81Q102.71-9.38 101.73-10.20L101.73-10.20L101.73-10.20Q99.42-12.07 99.42-15.06L99.42-15.06L99.42-15.06Q99.42-17 100.37-18.51L100.37-18.51L100.37-18.51Q101.32-20.03 102.85-21.05L102.85-21.05L102.85-21.05Q105.91-23.12 109.67-23.12L109.67-23.12L109.67-23.12Q113.42-23.12 115.24-22.00L115.24-22.00L115.24-22.00Q117.06-20.88 117.06-18.97L117.06-18.97L117.06-18.97Q117.06-17.31 115.77-16.25L115.77-16.25L115.77-16.25Q114.65-15.37 113.29-15.37L113.29-15.37L113.29-15.37Q111.93-15.37 110.98-15.71ZM141.81-8.94L141.81-8.94L141.81-8.94Q142.19-8.23 142.19-6.83L142.19-6.83L142.19-6.83Q142.19-5.44 141.15-4.47L141.15-4.47L141.15-4.47Q140.11-3.50 137.84-3.50L137.84-3.50L137.63-3.50L137.09 0L137.09 0Q136.17 0.68 134.54 0.68L134.54 0.68L134.54 0.68Q132.43 0.68 131.75-0.61L131.75-0.61L131.75-0.61Q131.48-1.09 131.48-1.50L131.48-1.50L131.48-1.50Q131.48-1.97 131.55-2.52L131.55-2.52L131.78-3.81L123.96-4.62L123.96-8.91L136.68-23.15L136.68-23.12L136.71-23.15L141.44-22.64L141.44-22.64Q139.84-16.12 138.48-8.60L138.48-8.60L139.26-8.60L139.26-8.60Q141.20-8.60 141.81-8.94ZM134.98-17.44L127.60-8.84L132.74-8.67L132.74-8.67Q133.86-13.67 134.98-17.44L134.98-17.44ZM154.87-12.27L154.87-12.27L154.87-12.27Q159.36-11.12 159.36-6.73L159.36-6.73L159.36-6.73Q159.36-3.57 156.67-1.50L156.67-1.50L156.67-1.50Q153.82 0.68 149.12 0.68L149.12 0.68L149.12 0.68Q146.34 0.68 144.67-0.39L144.67-0.39L144.67-0.39Q143.00-1.46 143.00-3.23L143.00-3.23L143.00-3.23Q143.00-5.00 144.33-6.09L144.33-6.09L144.33-6.09Q145.01-4.83 146.22-4.25L146.22-4.25L146.22-4.25Q147.42-3.67 148.97-3.67L148.97-3.67L148.97-3.67Q150.52-3.67 151.50-4.49L151.50-4.49L151.50-4.49Q152.49-5.30 152.49-6.90L152.49-6.90L152.49-6.90Q152.49-9.93 148.34-9.93L148.34-9.93L148.92-12.99L148.92-12.99Q153.88-13.80 153.88-16.25L153.88-16.25L153.88-16.25Q153.88-17.24 153.20-17.78L153.20-17.78L153.20-17.78Q152.52-18.33 151.23-18.33L151.23-18.33L151.23-18.33Q148.95-18.33 146.95-16.22L146.95-16.22L146.95-16.22Q146.30-16.39 146.03-16.85L146.03-16.85L146.03-16.85Q145.76-17.31 145.76-18.26L145.76-18.26L145.76-18.26Q145.76-19.21 146.44-20.11L146.44-20.11L146.44-20.11Q147.12-21.01 148.31-21.69L148.31-21.69L148.31-21.69Q150.86-23.12 154.29-23.12L154.29-23.12L154.29-23.12Q156.91-23.12 158.58-21.76L158.58-21.76L158.58-21.76Q160.31-20.37 160.31-18.29L160.31-18.29L160.31-18.29Q160.31-16.42 158.81-14.79L158.81-14.79L158.81-14.79Q157.32-13.16 154.87-12.27ZM168.37-17.17L167.42-13.97L167.42-13.97Q169.39-14.14 170.61-14.14L170.61-14.14L170.61-14.14Q171.84-14.14 173.13-13.70L173.13-13.70L173.13-13.70Q174.42-13.26 175.37-12.51L175.37-12.51L175.37-12.51Q177.48-10.85 177.48-8.72L177.48-8.72L177.48-8.72Q177.48-6.60 176.72-4.90L176.72-4.90L176.72-4.90Q175.95-3.20 174.62-1.97L174.62-1.97L174.62-1.97Q171.80 0.68 167.52 0.68L167.52 0.68L167.52 0.68Q164.42 0.68 162.79-0.31L162.79-0.31L162.79-0.31Q161.16-1.29 161.16-3.18L161.16-3.18L161.16-3.18Q161.16-5.07 162.35-6.09L162.35-6.09L162.35-6.09Q163.78-3.67 166.80-3.67L166.80-3.67L166.80-3.67Q168.64-3.67 169.66-4.52L169.66-4.52L169.66-4.52Q170.68-5.37 170.68-7.00L170.68-7.00L170.68-7.00Q170.68-10.27 165.95-10.27L165.95-10.27L165.95-10.27Q164.15-10.27 163.00-10.13L163.00-10.13L166.19-22.44L174.18-22.44L174.18-22.44Q176.87-22.44 177.72-23.63L177.72-23.63L177.72-23.63Q178.60-22.85 178.60-21.11L178.60-21.11L178.60-21.11Q178.60-19.48 177.31-18.33L177.31-18.33L177.31-18.33Q176.02-17.17 174.18-17.17L174.18-17.17L168.37-17.17ZM196.62-8.94L196.62-8.94L196.62-8.94Q197.00-8.23 197.00-6.83L197.00-6.83L197.00-6.83Q197.00-5.44 195.96-4.47L195.96-4.47L195.96-4.47Q194.92-3.50 192.64-3.50L192.64-3.50L192.44-3.50L191.90 0L191.90 0Q190.98 0.68 189.35 0.68L189.35 0.68L189.35 0.68Q187.24 0.68 186.56-0.61L186.56-0.61L186.56-0.61Q186.29-1.09 186.29-1.50L186.29-1.50L186.29-1.50Q186.29-1.97 186.35-2.52L186.35-2.52L186.59-3.81L178.77-4.62L178.77-8.91L191.49-23.15L191.49-23.12L191.52-23.15L196.25-22.64L196.25-22.64Q194.65-16.12 193.29-8.60L193.29-8.60L194.07-8.60L194.07-8.60Q196.01-8.60 196.62-8.94ZM189.79-17.44L182.41-8.84L187.54-8.67L187.54-8.67Q188.67-13.67 189.79-17.44L189.79-17.44ZM215.93-8.94L215.93-8.94L215.93-8.94Q216.31-8.23 216.31-6.83L216.31-6.83L216.31-6.83Q216.31-5.44 215.27-4.47L215.27-4.47L215.27-4.47Q214.23-3.50 211.96-3.50L211.96-3.50L211.75-3.50L211.21 0L211.21 0Q210.29 0.68 208.66 0.68L208.66 0.68L208.66 0.68Q206.55 0.68 205.87-0.61L205.87-0.61L205.87-0.61Q205.60-1.09 205.60-1.50L205.60-1.50L205.60-1.50Q205.60-1.97 205.67-2.52L205.67-2.52L205.90-3.81L198.08-4.62L198.08-8.91L210.80-23.15L210.80-23.12L210.83-23.15L215.56-22.64L215.56-22.64Q213.96-16.12 212.60-8.60L212.60-8.60L213.38-8.60L213.38-8.60Q215.32-8.60 215.93-8.94ZM209.10-17.44L201.72-8.84L206.86-8.67L206.86-8.67Q207.98-13.67 209.10-17.44L209.10-17.44ZM234.84-17.48L234.84-17.48L234.84-17.48Q233.82-18.80 231.40-18.80L231.40-18.80L231.40-18.80Q228.24-18.80 226.51-16.59L226.51-16.59L226.51-16.59Q225.28-15.06 224.74-12.31L224.74-12.31L224.74-12.31Q225.62-13.77 226.80-14.54L226.80-14.54L226.80-14.54Q227.97-15.30 229.60-15.30L229.60-15.30L229.60-15.30Q231.23-15.30 232.27-14.72L232.27-14.72L232.27-14.72Q233.31-14.14 233.95-13.19L233.95-13.19L233.95-13.19Q235.18-11.42 235.18-8.91L235.18-8.91L235.18-8.91Q235.18-6.39 234.28-4.62L234.28-4.62L234.28-4.62Q233.38-2.86 231.98-1.67L231.98-1.67L231.98-1.67Q230.59-0.48 228.87 0.12L228.87 0.12L228.87 0.12Q227.15 0.71 225.54 0.71L225.54 0.71L225.54 0.71Q223.92 0.71 222.60 0.19L222.60 0.19L222.60 0.19Q221.27-0.34 220.32-1.39L220.32-1.39L220.32-1.39Q218.25-3.64 218.25-7.65L218.25-7.65L218.25-7.65Q218.25-10.34 219.16-13.09L219.16-13.09L219.16-13.09Q220.08-15.84 221.75-18.09L221.75-18.09L221.75-18.09Q223.41-20.33 225.69-21.76L225.69-21.76L225.69-21.76Q227.97-23.19 230.55-23.19L230.55-23.19L230.55-23.19Q233.14-23.19 234.60-22.37L234.60-22.37L234.60-22.37Q236.06-21.56 236.06-20.06L236.06-20.06L236.06-20.06Q236.06-18.43 234.84-17.48ZM225.13-10.10L225.13-10.10L225.13-10.10Q224.67-9.38 224.40-8.43L224.40-8.43L224.40-8.43Q224.13-7.48 224.13-6.14L224.13-6.14L224.13-6.14Q224.13-4.79 224.72-3.93L224.72-3.93L224.72-3.93Q225.32-3.06 226.27-3.06L226.27-3.06L226.27-3.06Q227.22-3.06 227.78-3.72L227.78-3.72L227.78-3.72Q228.34-4.39 228.65-5.30L228.65-5.30L228.65-5.30Q229.19-6.94 229.19-8.43L229.19-8.43L229.19-8.43Q229.19-9.93 228.67-10.78L228.67-10.78L228.67-10.78Q228.14-11.63 227.43-11.63L227.43-11.63L227.43-11.63Q226.71-11.63 226.15-11.22L226.15-11.22L226.15-11.22Q225.59-10.81 225.13-10.10ZM243.88-17.17L242.93-13.97L242.93-13.97Q244.90-14.14 246.13-14.14L246.13-14.14L246.13-14.14Q247.35-14.14 248.64-13.70L248.64-13.70L248.64-13.70Q249.93-13.26 250.89-12.51L250.89-12.51L250.89-12.51Q252.99-10.85 252.99-8.72L252.99-8.72L252.99-8.72Q252.99-6.60 252.23-4.90L252.23-4.90L252.23-4.90Q251.46-3.20 250.14-1.97L250.14-1.97L250.14-1.97Q247.32 0.68 243.03 0.68L243.03 0.68L243.03 0.68Q239.94 0.68 238.31-0.31L238.31-0.31L238.31-0.31Q236.67-1.29 236.67-3.18L236.67-3.18L236.67-3.18Q236.67-5.07 237.86-6.09L237.86-6.09L237.86-6.09Q239.29-3.67 242.32-3.67L242.32-3.67L242.32-3.67Q244.15-3.67 245.17-4.52L245.17-4.52L245.17-4.52Q246.19-5.37 246.19-7.00L246.19-7.00L246.19-7.00Q246.19-10.27 241.47-10.27L241.47-10.27L241.47-10.27Q239.67-10.27 238.51-10.13L238.51-10.13L241.71-22.44L249.70-22.44L249.70-22.44Q252.38-22.44 253.23-23.63L253.23-23.63L253.23-23.63Q254.12-22.85 254.12-21.11L254.12-21.11L254.12-21.11Q254.12-19.48 252.82-18.33L252.82-18.33L252.82-18.33Q251.53-17.17 249.70-17.17L249.70-17.17L243.88-17.17ZM268.36-19.72L268.36-19.72L268.36-19.72Q268.84-20.54 268.84-21.42L268.84-21.42L268.84-21.42Q268.84-22.98 267.89-22.98L267.89-22.98L267.89-22.98Q266.42-22.98 265.81-19.99L265.81-19.99L265.30-17.34L268.40-17.34L268.19-15.81L265.00-15.81L261.94 0L255.07 0.68L258.33-15.81L255.92-15.81L256.22-17.34L258.60-17.34L259.32-20.03L259.32-20.03Q259.93-22.51 262.55-23.66L262.55-23.66L262.55-23.66Q264.45-24.48 267.65-24.48L267.65-24.48L267.65-24.48Q270.84-24.48 272.27-23.66L272.27-23.66L272.27-23.66Q273.70-22.85 273.70-21.76L273.70-21.76L273.70-21.76Q273.70-20.67 272.85-19.99L272.85-19.99L272.85-19.99Q272.00-19.31 271.05-19.31L271.05-19.31L271.05-19.31Q269.18-19.31 268.36-19.72ZM285.12-8.94L285.12-8.94L285.12-8.94Q285.50-8.23 285.50-6.83L285.50-6.83L285.50-6.83Q285.50-5.44 284.46-4.47L284.46-4.47L284.46-4.47Q283.42-3.50 281.15-3.50L281.15-3.50L280.94-3.50L280.40 0L280.40 0Q279.48 0.68 277.85 0.68L277.85 0.68L277.85 0.68Q275.74 0.68 275.06-0.61L275.06-0.61L275.06-0.61Q274.79-1.09 274.79-1.50L274.79-1.50L274.79-1.50Q274.79-1.97 274.86-2.52L274.86-2.52L275.09-3.81L267.27-4.62L267.27-8.91L279.99-23.15L279.99-23.12L280.02-23.15L284.75-22.64L284.75-22.64Q283.15-16.12 281.79-8.60L281.79-8.60L282.57-8.60L282.57-8.60Q284.51-8.60 285.12-8.94ZM278.29-17.44L270.91-8.84L276.05-8.67L276.05-8.67Q277.17-13.67 278.29-17.44L278.29-17.44ZM287.10-0.85L286.89-5.03L291.14-8.30L293.79-10.47L293.79-10.47Q295.15-11.63 296.14-12.65L296.14-12.65L296.14-12.65Q297.94-14.45 297.94-16.18L297.94-16.18L297.94-16.18Q297.94-17.20 297.28-17.75L297.28-17.75L297.28-17.75Q296.62-18.29 295.65-18.29L295.65-18.29L295.65-18.29Q294.68-18.29 293.98-18.07L293.98-18.07L293.98-18.07Q293.28-17.85 292.67-17.48L292.67-17.48L292.67-17.48Q291.38-16.63 290.77-15.33L290.77-15.33L290.77-15.33Q289.92-15.37 289.36-16.08L289.36-16.08L289.36-16.08Q288.80-16.80 288.80-17.83L288.80-17.83L288.80-17.83Q288.80-18.87 289.44-19.84L289.44-19.84L289.44-19.84Q290.09-20.81 291.24-21.56L291.24-21.56L291.24-21.56Q293.76-23.12 297.21-23.12L297.21-23.12L297.21-23.12Q300.66-23.12 302.60-21.62L302.60-21.62L302.60-21.62Q304.54-20.13 304.54-17.58L304.54-17.58L304.54-17.58Q304.54-15.67 303.60-13.94L303.60-13.94L303.60-13.94Q302.67-12.21 300.19-10.44L300.19-10.44L296.51-7.85L294.30-6.39L291.48-4.66L292.67-4.52L292.67-4.52Q293.49-4.42 294.92-4.42L294.92-4.42L294.92-4.42Q296.34-4.42 297.53-4.57L297.53-4.57L297.53-4.57Q298.72-4.73 299.74-5.03L299.74-5.03L299.74-5.03Q301.99-5.64 302.70-6.49L302.70-6.49L302.70-6.49Q303.08-6.22 303.37-5.53L303.37-5.53L303.37-5.53Q303.65-4.83 303.65-3.98L303.65-3.98L303.65-3.98Q303.65-1.43 301.72-0.37L301.72-0.37L301.72-0.37Q299.78 0.68 295.80 0.68L295.80 0.68L295.80 0.68Q293.73 0.68 290.97 0.09L290.97 0.09L290.97 0.09Q288.22-0.51 287.10-0.85L287.10-0.85ZM323.27-8.94L323.27-8.94L323.27-8.94Q323.65-8.23 323.65-6.83L323.65-6.83L323.65-6.83Q323.65-5.44 322.61-4.47L322.61-4.47L322.61-4.47Q321.57-3.50 319.29-3.50L319.29-3.50L319.09-3.50L318.55 0L318.55 0Q317.63 0.68 316.00 0.68L316.00 0.68L316.00 0.68Q313.89 0.68 313.21-0.61L313.21-0.61L313.21-0.61Q312.94-1.09 312.94-1.50L312.94-1.50L312.94-1.50Q312.94-1.97 313.00-2.52L313.00-2.52L313.24-3.81L305.42-4.62L305.42-8.91L318.14-23.15L318.14-23.12L318.17-23.15L322.90-22.64L322.90-22.64Q321.30-16.12 319.94-8.60L319.94-8.60L320.72-8.60L320.72-8.60Q322.66-8.60 323.27-8.94ZM316.44-17.44L309.06-8.84L314.19-8.67L314.19-8.67Q315.32-13.67 316.44-17.44L316.44-17.44ZM342.58-8.94L342.58-8.94L342.58-8.94Q342.96-8.23 342.96-6.83L342.96-6.83L342.96-6.83Q342.96-5.44 341.92-4.47L341.92-4.47L341.92-4.47Q340.88-3.50 338.61-3.50L338.61-3.50L338.40-3.50L337.86 0L337.86 0Q336.94 0.68 335.31 0.68L335.31 0.68L335.31 0.68Q333.20 0.68 332.52-0.61L332.52-0.61L332.52-0.61Q332.25-1.09 332.25-1.50L332.25-1.50L332.25-1.50Q332.25-1.97 332.32-2.52L332.32-2.52L332.55-3.81L324.73-4.62L324.73-8.91L337.45-23.15L337.45-23.12L337.48-23.15L342.21-22.64L342.21-22.64Q340.61-16.12 339.25-8.60L339.25-8.60L340.03-8.60L340.03-8.60Q341.97-8.60 342.58-8.94ZM335.75-17.44L328.37-8.84L333.51-8.67L333.51-8.67Q334.63-13.67 335.75-17.44L335.75-17.44ZM348.36-6.22L356.90-17.99L356.90-17.99Q353.80-16.69 351.12-16.69L351.12-16.69L351.12-16.69Q348.43-16.69 347.04-17.61L347.04-17.61L347.04-17.61Q345.64-18.53 345.64-20.13L345.64-20.13L345.64-20.13Q345.64-21.11 345.93-21.86L345.93-21.86L345.93-21.86Q346.22-22.61 346.97-23.53L346.97-23.53L346.97-23.53Q347.31-22.85 351.93-22.51L351.93-22.51L351.93-22.51Q353.16-22.44 354.25-22.44L354.25-22.44L361.79-22.44L362.54-19.58L360.98-17.14L359.45-14.52L357.37-10.68L357.37-10.68Q355.67-7.45 355.18-5.98L355.18-5.98L355.18-5.98Q354.69-4.52 354.59-3.94L354.59-3.94L354.59-3.94Q354.38-3.09 354.38-2.36L354.38-2.36L354.38-2.36Q354.38-1.63 354.76-1.26L354.76-1.26L354.76-1.26Q354.08-0.03 352.07 0.51L352.07 0.51L352.07 0.51Q351.42 0.68 350.64 0.68L350.64 0.68L350.64 0.68Q349.86 0.68 349.18 0.37L349.18 0.37L349.18 0.37Q348.50 0.07 348.06-0.41L348.06-0.41L348.06-0.41Q347.21-1.43 347.21-2.60L347.21-2.60L347.21-2.60Q347.21-3.77 347.55-4.61L347.55-4.61L347.55-4.61Q347.89-5.44 348.36-6.22L348.36-6.22ZM361.25-1.63L361.25-1.63L365.47-23.80L372.37-24.48L371.31-19.28L371.31-19.28Q370.94-17.68 370.46-16.56L370.46-16.56L370.46-16.56Q371.21-17.51 372.84-17.88L372.84-17.88L372.84-17.88Q373.32-18.02 373.90-18.02L373.90-18.02L373.90-18.02Q377.06-18.02 378.79-16.10L378.79-16.10L378.79-16.10Q380.53-14.18 380.53-10.47L380.53-10.47L380.53-10.47Q380.53-5.64 377.77-2.62L377.77-2.62L377.77-2.62Q374.82 0.68 369.44 0.68L369.44 0.68L369.44 0.68Q365.74 0.68 362.95-0.54L362.95-0.54L362.95-0.54Q361.96-0.99 361.25-1.63ZM369.89-11.90L368.08-1.94L368.08-1.94Q368.80-1.33 369.68-1.33L369.68-1.33L369.68-1.33Q370.57-1.33 371.08-1.67L371.08-1.67L371.08-1.67Q371.59-2.01 371.96-2.69L371.96-2.69L371.96-2.69Q372.98-4.52 373.80-10.13L373.80-10.13L373.80-10.13Q374.03-11.73 374.03-13.33L374.03-13.33L374.03-13.33Q374.03-14.93 373.68-15.44L373.68-15.44L373.68-15.44Q373.32-15.95 372.64-15.95L372.64-15.95L372.64-15.95Q370.57-15.95 369.89-11.90L369.89-11.90ZM388.99-17.17L388.04-13.97L388.04-13.97Q390.01-14.14 391.24-14.14L391.24-14.14L391.24-14.14Q392.46-14.14 393.75-13.70L393.75-13.70L393.75-13.70Q395.05-13.26 396.00-12.51L396.00-12.51L396.00-12.51Q398.11-10.85 398.11-8.72L398.11-8.72L398.11-8.72Q398.11-6.60 397.34-4.90L397.34-4.90L397.34-4.90Q396.58-3.20 395.25-1.97L395.25-1.97L395.25-1.97Q392.43 0.68 388.14 0.68L388.14 0.68L388.14 0.68Q385.05 0.68 383.42-0.31L383.42-0.31L383.42-0.31Q381.79-1.29 381.79-3.18L381.79-3.18L381.79-3.18Q381.79-5.07 382.98-6.09L382.98-6.09L382.98-6.09Q384.40-3.67 387.43-3.67L387.43-3.67L387.43-3.67Q389.27-3.67 390.29-4.52L390.29-4.52L390.29-4.52Q391.31-5.37 391.31-7.00L391.31-7.00L391.31-7.00Q391.31-10.27 386.58-10.27L386.58-10.27L386.58-10.27Q384.78-10.27 383.62-10.13L383.62-10.13L386.82-22.44L394.81-22.44L394.81-22.44Q397.49-22.44 398.34-23.63L398.34-23.63L398.34-23.63Q399.23-22.85 399.23-21.11L399.23-21.11L399.23-21.11Q399.23-19.48 397.94-18.33L397.94-18.33L397.94-18.33Q396.64-17.17 394.81-17.17L394.81-17.17L388.99-17.17ZM411.23-12.27L411.23-12.27L411.23-12.27Q415.72-11.12 415.72-6.73L415.72-6.73L415.72-6.73Q415.72-3.57 413.03-1.50L413.03-1.50L413.03-1.50Q410.18 0.68 405.48 0.68L405.48 0.68L405.48 0.68Q402.70 0.68 401.03-0.39L401.03-0.39L401.03-0.39Q399.36-1.46 399.36-3.23L399.36-3.23L399.36-3.23Q399.36-5.00 400.69-6.09L400.69-6.09L400.69-6.09Q401.37-4.83 402.58-4.25L402.58-4.25L402.58-4.25Q403.78-3.67 405.33-3.67L405.33-3.67L405.33-3.67Q406.88-3.67 407.86-4.49L407.86-4.49L407.86-4.49Q408.85-5.30 408.85-6.90L408.85-6.90L408.85-6.90Q408.85-9.93 404.70-9.93L404.70-9.93L405.28-12.99L405.28-12.99Q410.24-13.80 410.24-16.25L410.24-16.25L410.24-16.25Q410.24-17.24 409.56-17.78L409.56-17.78L409.56-17.78Q408.88-18.33 407.59-18.33L407.59-18.33L407.59-18.33Q405.31-18.33 403.31-16.22L403.31-16.22L403.31-16.22Q402.66-16.39 402.39-16.85L402.39-16.85L402.39-16.85Q402.12-17.31 402.12-18.26L402.12-18.26L402.12-18.26Q402.12-19.21 402.80-20.11L402.80-20.11L402.80-20.11Q403.48-21.01 404.67-21.69L404.67-21.69L404.67-21.69Q407.22-23.12 410.65-23.12L410.65-23.12L410.65-23.12Q413.27-23.12 414.94-21.76L414.94-21.76L414.94-21.76Q416.67-20.37 416.67-18.29L416.67-18.29L416.67-18.29Q416.67-16.42 415.17-14.79L415.17-14.79L415.17-14.79Q413.68-13.16 411.23-12.27ZM422.04-6.22L430.58-17.99L430.58-17.99Q427.48-16.69 424.80-16.69L424.80-16.69L424.80-16.69Q422.11-16.69 420.72-17.61L420.72-17.61L420.72-17.61Q419.32-18.53 419.32-20.13L419.32-20.13L419.32-20.13Q419.32-21.11 419.61-21.86L419.61-21.86L419.61-21.86Q419.90-22.61 420.65-23.53L420.65-23.53L420.65-23.53Q420.99-22.85 425.61-22.51L425.61-22.51L425.61-22.51Q426.84-22.44 427.92-22.44L427.92-22.44L435.47-22.44L436.22-19.58L434.66-17.14L433.13-14.52L431.05-10.68L431.05-10.68Q429.35-7.45 428.86-5.98L428.86-5.98L428.86-5.98Q428.37-4.52 428.26-3.94L428.26-3.94L428.26-3.94Q428.06-3.09 428.06-2.36L428.06-2.36L428.06-2.36Q428.06-1.63 428.43-1.26L428.43-1.26L428.43-1.26Q427.75-0.03 425.75 0.51L425.75 0.51L425.75 0.51Q425.10 0.68 424.32 0.68L424.32 0.68L424.32 0.68Q423.54 0.68 422.86 0.37L422.86 0.37L422.86 0.37Q422.18 0.07 421.74-0.41L421.74-0.41L421.74-0.41Q420.89-1.43 420.89-2.60L420.89-2.60L420.89-2.60Q420.89-3.77 421.23-4.61L421.23-4.61L421.23-4.61Q421.57-5.44 422.04-6.22L422.04-6.22ZM452.23-17.48L452.23-17.48L452.23-17.48Q451.21-18.80 448.80-18.80L448.80-18.80L448.80-18.80Q445.64-18.80 443.90-16.59L443.90-16.59L443.90-16.59Q442.68-15.06 442.14-12.31L442.14-12.31L442.14-12.31Q443.02-13.77 444.19-14.54L444.19-14.54L444.19-14.54Q445.37-15.30 447.00-15.30L447.00-15.30L447.00-15.30Q448.63-15.30 449.67-14.72L449.67-14.72L449.67-14.72Q450.70-14.14 451.35-13.19L451.35-13.19L451.35-13.19Q452.57-11.42 452.57-8.91L452.57-8.91L452.57-8.91Q452.57-6.39 451.67-4.62L451.67-4.62L451.67-4.62Q450.77-2.86 449.38-1.67L449.38-1.67L449.38-1.67Q447.98-0.48 446.27 0.12L446.27 0.12L446.27 0.12Q444.55 0.71 442.94 0.71L442.94 0.71L442.94 0.71Q441.32 0.71 439.99 0.19L439.99 0.19L439.99 0.19Q438.67-0.34 437.72-1.39L437.72-1.39L437.72-1.39Q435.64-3.64 435.64-7.65L435.64-7.65L435.64-7.65Q435.64-10.34 436.56-13.09L436.56-13.09L436.56-13.09Q437.48-15.84 439.14-18.09L439.14-18.09L439.14-18.09Q440.81-20.33 443.09-21.76L443.09-21.76L443.09-21.76Q445.37-23.19 447.95-23.19L447.95-23.19L447.95-23.19Q450.53-23.19 452.00-22.37L452.00-22.37L452.00-22.37Q453.46-21.56 453.46-20.06L453.46-20.06L453.46-20.06Q453.46-18.43 452.23-17.48ZM442.53-10.10L442.53-10.10L442.53-10.10Q442.07-9.38 441.80-8.43L441.80-8.43L441.80-8.43Q441.52-7.48 441.52-6.14L441.52-6.14L441.52-6.14Q441.52-4.79 442.12-3.93L442.12-3.93L442.12-3.93Q442.71-3.06 443.67-3.06L443.67-3.06L443.67-3.06Q444.62-3.06 445.18-3.72L445.18-3.72L445.18-3.72Q445.74-4.39 446.05-5.30L446.05-5.30L446.05-5.30Q446.59-6.94 446.59-8.43L446.59-8.43L446.59-8.43Q446.59-9.93 446.06-10.78L446.06-10.78L446.06-10.78Q445.54-11.63 444.82-11.63L444.82-11.63L444.82-11.63Q444.11-11.63 443.55-11.22L443.55-11.22L443.55-11.22Q442.99-10.81 442.53-10.10ZM471.89-8.94L471.89-8.94L471.89-8.94Q472.26-8.23 472.26-6.83L472.26-6.83L472.26-6.83Q472.26-5.44 471.22-4.47L471.22-4.47L471.22-4.47Q470.19-3.50 467.91-3.50L467.91-3.50L467.70-3.50L467.16 0L467.16 0Q466.24 0.68 464.61 0.68L464.61 0.68L464.61 0.68Q462.50 0.68 461.82-0.61L461.82-0.61L461.82-0.61Q461.55-1.09 461.55-1.50L461.55-1.50L461.55-1.50Q461.55-1.97 461.62-2.52L461.62-2.52L461.86-3.81L454.04-4.62L454.04-8.91L466.75-23.15L466.75-23.12L466.79-23.15L471.51-22.64L471.51-22.64Q469.91-16.12 468.55-8.60L468.55-8.60L469.34-8.60L469.34-8.60Q471.27-8.60 471.89-8.94ZM465.05-17.44L457.67-8.84L462.81-8.67L462.81-8.67Q463.93-13.67 465.05-17.44L465.05-17.44ZM477.67-6.22L486.20-17.99L486.20-17.99Q483.11-16.69 480.42-16.69L480.42-16.69L480.42-16.69Q477.73-16.69 476.34-17.61L476.34-17.61L476.34-17.61Q474.95-18.53 474.95-20.13L474.95-20.13L474.95-20.13Q474.95-21.11 475.24-21.86L475.24-21.86L475.24-21.86Q475.52-22.61 476.27-23.53L476.27-23.53L476.27-23.53Q476.61-22.85 481.24-22.51L481.24-22.51L481.24-22.51Q482.46-22.44 483.55-22.44L483.55-22.44L491.10-22.44L491.84-19.58L490.28-17.14L488.75-14.52L486.68-10.68L486.68-10.68Q484.98-7.45 484.48-5.98L484.48-5.98L484.48-5.98Q483.99-4.52 483.89-3.94L483.89-3.94L483.89-3.94Q483.68-3.09 483.68-2.36L483.68-2.36L483.68-2.36Q483.68-1.63 484.06-1.26L484.06-1.26L484.06-1.26Q483.38-0.03 481.37 0.51L481.37 0.51L481.37 0.51Q480.73 0.68 479.94 0.68L479.94 0.68L479.94 0.68Q479.16 0.68 478.48 0.37L478.48 0.37L478.48 0.37Q477.80 0.07 477.36-0.41L477.36-0.41L477.36-0.41Q476.51-1.43 476.51-2.60L476.51-2.60L476.51-2.60Q476.51-3.77 476.85-4.61L476.85-4.61L476.85-4.61Q477.19-5.44 477.67-6.22L477.67-6.22ZM497.42-17.17L496.47-13.97L496.47-13.97Q498.44-14.14 499.66-14.14L499.66-14.14L499.66-14.14Q500.89-14.14 502.18-13.70L502.18-13.70L502.18-13.70Q503.47-13.26 504.42-12.51L504.42-12.51L504.42-12.51Q506.53-10.85 506.53-8.72L506.53-8.72L506.53-8.72Q506.53-6.60 505.77-4.90L505.77-4.90L505.77-4.90Q505.00-3.20 503.68-1.97L503.68-1.97L503.68-1.97Q500.85 0.68 496.57 0.68L496.57 0.68L496.57 0.68Q493.48 0.68 491.84-0.31L491.84-0.31L491.84-0.31Q490.21-1.29 490.21-3.18L490.21-3.18L490.21-3.18Q490.21-5.07 491.40-6.09L491.40-6.09L491.40-6.09Q492.83-3.67 495.86-3.67L495.86-3.67L495.86-3.67Q497.69-3.67 498.71-4.52L498.71-4.52L498.71-4.52Q499.73-5.37 499.73-7.00L499.73-7.00L499.73-7.00Q499.73-10.27 495.01-10.27L495.01-10.27L495.01-10.27Q493.20-10.27 492.05-10.13L492.05-10.13L495.24-22.44L503.23-22.44L503.23-22.44Q505.92-22.44 506.77-23.63L506.77-23.63L506.77-23.63Q507.65-22.85 507.65-21.11L507.65-21.11L507.65-21.11Q507.65-19.48 506.36-18.33L506.36-18.33L506.36-18.33Q505.07-17.17 503.23-17.17L503.23-17.17L497.42-17.17ZM521.90-19.72L521.90-19.72L521.90-19.72Q522.38-20.54 522.38-21.42L522.38-21.42L522.38-21.42Q522.38-22.98 521.42-22.98L521.42-22.98L521.42-22.98Q519.96-22.98 519.35-19.99L519.35-19.99L518.84-17.34L521.93-17.34L521.73-15.81L518.53-15.81L515.47 0L508.61 0.68L511.87-15.81L509.46-15.81L509.76-17.34L512.14-17.34L512.86-20.03L512.86-20.03Q513.47-22.51 516.09-23.66L516.09-23.66L516.09-23.66Q517.99-24.48 521.19-24.48L521.19-24.48L521.19-24.48Q524.38-24.48 525.81-23.66L525.81-23.66L525.81-23.66Q527.24-22.85 527.24-21.76L527.24-21.76L527.24-21.76Q527.24-20.67 526.39-19.99L526.39-19.99L526.39-19.99Q525.54-19.31 524.59-19.31L524.59-19.31L524.59-19.31Q522.72-19.31 521.90-19.72ZM535.98-12.27L535.98-12.27L535.98-12.27Q540.46-11.12 540.46-6.73L540.46-6.73L540.46-6.73Q540.46-3.57 537.78-1.50L537.78-1.50L537.78-1.50Q534.92 0.68 530.23 0.68L530.23 0.68L530.23 0.68Q527.44 0.68 525.78-0.39L525.78-0.39L525.78-0.39Q524.11-1.46 524.11-3.23L524.11-3.23L524.11-3.23Q524.11-5.00 525.44-6.09L525.44-6.09L525.44-6.09Q526.12-4.83 527.32-4.25L527.32-4.25L527.32-4.25Q528.53-3.67 530.08-3.67L530.08-3.67L530.08-3.67Q531.62-3.67 532.61-4.49L532.61-4.49L532.61-4.49Q533.60-5.30 533.60-6.90L533.60-6.90L533.60-6.90Q533.60-9.93 529.45-9.93L529.45-9.93L530.03-12.99L530.03-12.99Q534.99-13.80 534.99-16.25L534.99-16.25L534.99-16.25Q534.99-17.24 534.31-17.78L534.31-17.78L534.31-17.78Q533.63-18.33 532.34-18.33L532.34-18.33L532.34-18.33Q530.06-18.33 528.05-16.22L528.05-16.22L528.05-16.22Q527.41-16.39 527.14-16.85L527.14-16.85L527.14-16.85Q526.86-17.31 526.86-18.26L526.86-18.26L526.86-18.26Q526.86-19.21 527.54-20.11L527.54-20.11L527.54-20.11Q528.22-21.01 529.41-21.69L529.41-21.69L529.41-21.69Q531.96-23.12 535.40-23.12L535.40-23.12L535.40-23.12Q538.02-23.12 539.68-21.76L539.68-21.76L539.68-21.76Q541.42-20.37 541.42-18.29L541.42-18.29L541.42-18.29Q541.42-16.42 539.92-14.79L539.92-14.79L539.92-14.79Q538.42-13.16 535.98-12.27ZM549.34 0.44L547.16 0.37L547.16 0.37Q546.11 0.34 545.00 0.34L545.00 0.34L545.00 0.34Q543.90 0.34 542.81 0.48L542.81 0.48L542.81 0.48Q542.67-0.07 542.67-0.71L542.67-0.71L542.67-0.71Q542.67-2.07 543.44-2.89L543.44-2.89L543.44-2.89Q544.20-3.71 545.39-3.71L545.39-3.71L547.23-3.71L550.09-16.56L550.09-16.56Q549.03-15.50 546.86-15.50L546.86-15.50L546.86-15.50Q545.77-15.50 544.92-16.52L544.92-16.52L544.92-16.52Q544.07-17.48 543.93-18.84L543.93-18.84L543.93-18.84Q548.96-19.72 556.48-23.09L556.48-23.09L557.57-21.79L554.27-3.71L555.12-3.71L555.12-3.71Q557.16-3.71 558.21-4.08L558.21-4.08L558.21-4.08Q558.65-3.33 558.65-2.11L558.65-2.11L558.65-2.11Q558.65-0.88 557.75-0.15L557.75-0.15L557.75-0.15Q556.85 0.58 555.36 0.58L555.36 0.58L555.36 0.58Q552.33 0.58 549.34 0.44L549.34 0.44ZM564.09-6.22L572.63-17.99L572.63-17.99Q569.53-16.69 566.85-16.69L566.85-16.69L566.85-16.69Q564.16-16.69 562.77-17.61L562.77-17.61L562.77-17.61Q561.37-18.53 561.37-20.13L561.37-20.13L561.37-20.13Q561.37-21.11 561.66-21.86L561.66-21.86L561.66-21.86Q561.95-22.61 562.70-23.53L562.70-23.53L562.70-23.53Q563.04-22.85 567.66-22.51L567.66-22.51L567.66-22.51Q568.89-22.44 569.98-22.44L569.98-22.44L577.52-22.44L578.27-19.58L576.71-17.14L575.18-14.52L573.10-10.68L573.10-10.68Q571.40-7.45 570.91-5.98L570.91-5.98L570.91-5.98Q570.42-4.52 570.32-3.94L570.32-3.94L570.32-3.94Q570.11-3.09 570.11-2.36L570.11-2.36L570.11-2.36Q570.11-1.63 570.49-1.26L570.49-1.26L570.49-1.26Q569.81-0.03 567.80 0.51L567.80 0.51L567.80 0.51Q567.15 0.68 566.37 0.68L566.37 0.68L566.37 0.68Q565.59 0.68 564.91 0.37L564.91 0.37L564.91 0.37Q564.23 0.07 563.79-0.41L563.79-0.41L563.79-0.41Q562.94-1.43 562.94-2.60L562.94-2.60L562.94-2.60Q562.94-3.77 563.28-4.61L563.28-4.61L563.28-4.61Q563.62-5.44 564.09-6.22L564.09-6.22ZM588.44-12.27L588.44-12.27L588.44-12.27Q592.93-11.12 592.93-6.73L592.93-6.73L592.93-6.73Q592.93-3.57 590.24-1.50L590.24-1.50L590.24-1.50Q587.38 0.68 582.69 0.68L582.69 0.68L582.69 0.68Q579.90 0.68 578.24-0.39L578.24-0.39L578.24-0.39Q576.57-1.46 576.57-3.23L576.57-3.23L576.57-3.23Q576.57-5.00 577.90-6.09L577.90-6.09L577.90-6.09Q578.58-4.83 579.79-4.25L579.79-4.25L579.79-4.25Q580.99-3.67 582.54-3.67L582.54-3.67L582.54-3.67Q584.09-3.67 585.07-4.49L585.07-4.49L585.07-4.49Q586.06-5.30 586.06-6.90L586.06-6.90L586.06-6.90Q586.06-9.93 581.91-9.93L581.91-9.93L582.49-12.99L582.49-12.99Q587.45-13.80 587.45-16.25L587.45-16.25L587.45-16.25Q587.45-17.24 586.77-17.78L586.77-17.78L586.77-17.78Q586.09-18.33 584.80-18.33L584.80-18.33L584.80-18.33Q582.52-18.33 580.52-16.22L580.52-16.22L580.52-16.22Q579.87-16.39 579.60-16.85L579.60-16.85L579.60-16.85Q579.33-17.31 579.33-18.26L579.33-18.26L579.33-18.26Q579.33-19.21 580.01-20.11L580.01-20.11L580.01-20.11Q580.69-21.01 581.88-21.69L581.88-21.69L581.88-21.69Q584.43-23.12 587.86-23.12L587.86-23.12L587.86-23.12Q590.48-23.12 592.14-21.76L592.14-21.76L592.14-21.76Q593.88-20.37 593.88-18.29L593.88-18.29L593.88-18.29Q593.88-16.42 592.38-14.79L592.38-14.79L592.38-14.79Q590.89-13.16 588.44-12.27ZM601.94-17.17L600.98-13.97L600.98-13.97Q602.96-14.14 604.18-14.14L604.18-14.14L604.18-14.14Q605.40-14.14 606.70-13.70L606.70-13.70L606.70-13.70Q607.99-13.26 608.94-12.51L608.94-12.51L608.94-12.51Q611.05-10.85 611.05-8.72L611.05-8.72L611.05-8.72Q611.05-6.60 610.28-4.90L610.28-4.90L610.28-4.90Q609.52-3.20 608.19-1.97L608.19-1.97L608.19-1.97Q605.37 0.68 601.09 0.68L601.09 0.68L601.09 0.68Q597.99 0.68 596.36-0.31L596.36-0.31L596.36-0.31Q594.73-1.29 594.73-3.18L594.73-3.18L594.73-3.18Q594.73-5.07 595.92-6.09L595.92-6.09L595.92-6.09Q597.35-3.67 600.37-3.67L600.37-3.67L600.37-3.67Q602.21-3.67 603.23-4.52L603.23-4.52L603.23-4.52Q604.25-5.37 604.25-7.00L604.25-7.00L604.25-7.00Q604.25-10.27 599.52-10.27L599.52-10.27L599.52-10.27Q597.72-10.27 596.56-10.13L596.56-10.13L599.76-22.44L607.75-22.44L607.75-22.44Q610.44-22.44 611.29-23.63L611.29-23.63L611.29-23.63Q612.17-22.85 612.17-21.11L612.17-21.11L612.17-21.11Q612.17-19.48 610.88-18.33L610.88-18.33L610.88-18.33Q609.59-17.17 607.75-17.17L607.75-17.17L601.94-17.17ZM626.42-19.72L626.42-19.72L626.42-19.72Q626.89-20.54 626.89-21.42L626.89-21.42L626.89-21.42Q626.89-22.98 625.94-22.98L625.94-22.98L625.94-22.98Q624.48-22.98 623.87-19.99L623.87-19.99L623.36-17.34L626.45-17.34L626.25-15.81L623.05-15.81L619.99 0L613.12 0.68L616.39-15.81L613.97-15.81L614.28-17.34L616.66-17.34L617.37-20.03L617.37-20.03Q617.98-22.51 620.60-23.66L620.60-23.66L620.60-23.66Q622.51-24.48 625.70-24.48L625.70-24.48L625.70-24.48Q628.90-24.48 630.33-23.66L630.33-23.66L630.33-23.66Q631.75-22.85 631.75-21.76L631.75-21.76L631.75-21.76Q631.75-20.67 630.90-19.99L630.90-19.99L630.90-19.99Q630.05-19.31 629.10-19.31L629.10-19.31L629.10-19.31Q627.23-19.31 626.42-19.72ZM643.18-8.94L643.18-8.94L643.18-8.94Q643.55-8.23 643.55-6.83L643.55-6.83L643.55-6.83Q643.55-5.44 642.52-4.47L642.52-4.47L642.52-4.47Q641.48-3.50 639.20-3.50L639.20-3.50L639.00-3.50L638.45 0L638.45 0Q637.53 0.68 635.90 0.68L635.90 0.68L635.90 0.68Q633.79 0.68 633.11-0.61L633.11-0.61L633.11-0.61Q632.84-1.09 632.84-1.50L632.84-1.50L632.84-1.50Q632.84-1.97 632.91-2.52L632.91-2.52L633.15-3.81L625.33-4.62L625.33-8.91L638.04-23.15L638.04-23.12L638.08-23.15L642.80-22.64L642.80-22.64Q641.21-16.12 639.85-8.60L639.85-8.60L640.63-8.60L640.63-8.60Q642.57-8.60 643.18-8.94ZM636.34-17.44L628.97-8.84L634.10-8.67L634.10-8.67Q635.22-13.67 636.34-17.44L636.34-17.44ZM651.51 0.44L649.33 0.37L649.33 0.37Q648.28 0.34 647.17 0.34L647.17 0.34L647.17 0.34Q646.07 0.34 644.98 0.48L644.98 0.48L644.98 0.48Q644.84-0.07 644.84-0.71L644.84-0.71L644.84-0.71Q644.84-2.07 645.61-2.89L645.61-2.89L645.61-2.89Q646.37-3.71 647.56-3.71L647.56-3.71L649.40-3.71L652.26-16.56L652.26-16.56Q651.20-15.50 649.03-15.50L649.03-15.50L649.03-15.50Q647.94-15.50 647.09-16.52L647.09-16.52L647.09-16.52Q646.24-17.48 646.10-18.84L646.10-18.84L646.10-18.84Q651.13-19.72 658.65-23.09L658.65-23.09L659.74-21.79L656.44-3.71L657.29-3.71L657.29-3.71Q659.33-3.71 660.38-4.08L660.38-4.08L660.38-4.08Q660.82-3.33 660.82-2.11L660.82-2.11L660.82-2.11Q660.82-0.88 659.92-0.15L659.92-0.15L659.92-0.15Q659.02 0.58 657.53 0.58L657.53 0.58L657.53 0.58Q654.50 0.58 651.51 0.44L651.51 0.44ZM666.26-6.22L674.80-17.99L674.80-17.99Q671.70-16.69 669.02-16.69L669.02-16.69L669.02-16.69Q666.33-16.69 664.94-17.61L664.94-17.61L664.94-17.61Q663.54-18.53 663.54-20.13L663.54-20.13L663.54-20.13Q663.54-21.11 663.83-21.86L663.83-21.86L663.83-21.86Q664.12-22.61 664.87-23.53L664.87-23.53L664.87-23.53Q665.21-22.85 669.83-22.51L669.83-22.51L669.83-22.51Q671.06-22.44 672.15-22.44L672.15-22.44L679.69-22.44L680.44-19.58L678.88-17.14L677.35-14.52L675.27-10.68L675.27-10.68Q673.57-7.45 673.08-5.98L673.08-5.98L673.08-5.98Q672.59-4.52 672.49-3.94L672.49-3.94L672.49-3.94Q672.28-3.09 672.28-2.36L672.28-2.36L672.28-2.36Q672.28-1.63 672.66-1.26L672.66-1.26L672.66-1.26Q671.98-0.03 669.97 0.51L669.97 0.51L669.97 0.51Q669.32 0.68 668.54 0.68L668.54 0.68L668.54 0.68Q667.76 0.68 667.08 0.37L667.08 0.37L667.08 0.37Q666.40 0.07 665.96-0.41L665.96-0.41L665.96-0.41Q665.11-1.43 665.11-2.60L665.11-2.60L665.11-2.60Q665.11-3.77 665.45-4.61L665.45-4.61L665.45-4.61Q665.79-5.44 666.26-6.22L666.26-6.22ZM684.11-6.22L692.65-17.99L692.65-17.99Q689.55-16.69 686.87-16.69L686.87-16.69L686.87-16.69Q684.18-16.69 682.79-17.61L682.79-17.61L682.79-17.61Q681.39-18.53 681.39-20.13L681.39-20.13L681.39-20.13Q681.39-21.11 681.68-21.86L681.68-21.86L681.68-21.86Q681.97-22.61 682.72-23.53L682.72-23.53L682.72-23.53Q683.06-22.85 687.68-22.51L687.68-22.51L687.68-22.51Q688.91-22.44 690.00-22.44L690.00-22.44L697.54-22.44L698.29-19.58L696.73-17.14L695.20-14.52L693.12-10.68L693.12-10.68Q691.42-7.45 690.93-5.98L690.93-5.98L690.93-5.98Q690.44-4.52 690.34-3.94L690.34-3.94L690.34-3.94Q690.13-3.09 690.13-2.36L690.13-2.36L690.13-2.36Q690.13-1.63 690.51-1.26L690.51-1.26L690.51-1.26Q689.83-0.03 687.82 0.51L687.82 0.51L687.82 0.51Q687.17 0.68 686.39 0.68L686.39 0.68L686.39 0.68Q685.61 0.68 684.93 0.37L684.93 0.37L684.93 0.37Q684.25 0.07 683.81-0.41L683.81-0.41L683.81-0.41Q682.96-1.43 682.96-2.60L682.96-2.60L682.96-2.60Q682.96-3.77 683.30-4.61L683.30-4.61L683.30-4.61Q683.64-5.44 684.11-6.22L684.11-6.22ZM708.46-12.27L708.46-12.27L708.46-12.27Q712.95-11.12 712.95-6.73L712.95-6.73L712.95-6.73Q712.95-3.57 710.26-1.50L710.26-1.50L710.26-1.50Q707.40 0.68 702.71 0.68L702.71 0.68L702.71 0.68Q699.92 0.68 698.26-0.39L698.26-0.39L698.26-0.39Q696.59-1.46 696.59-3.23L696.59-3.23L696.59-3.23Q696.59-5.00 697.92-6.09L697.92-6.09L697.92-6.09Q698.60-4.83 699.81-4.25L699.81-4.25L699.81-4.25Q701.01-3.67 702.56-3.67L702.56-3.67L702.56-3.67Q704.11-3.67 705.09-4.49L705.09-4.49L705.09-4.49Q706.08-5.30 706.08-6.90L706.08-6.90L706.08-6.90Q706.08-9.93 701.93-9.93L701.93-9.93L702.51-12.99L702.51-12.99Q707.47-13.80 707.47-16.25L707.47-16.25L707.47-16.25Q707.47-17.24 706.79-17.78L706.79-17.78L706.79-17.78Q706.11-18.33 704.82-18.33L704.82-18.33L704.82-18.33Q702.54-18.33 700.54-16.22L700.54-16.22L700.54-16.22Q699.89-16.39 699.62-16.85L699.62-16.85L699.62-16.85Q699.35-17.31 699.35-18.26L699.35-18.26L699.35-18.26Q699.35-19.21 700.03-20.11L700.03-20.11L700.03-20.11Q700.71-21.01 701.90-21.69L701.90-21.69L701.90-21.69Q704.45-23.12 707.88-23.12L707.88-23.12L707.88-23.12Q710.50-23.12 712.16-21.76L712.16-21.76L712.16-21.76Q713.90-20.37 713.90-18.29L713.90-18.29L713.90-18.29Q713.90-16.42 712.40-14.79L712.40-14.79L712.40-14.79Q710.91-13.16 708.46-12.27ZM726.55-12.27L726.55-12.27L726.55-12.27Q731.03-11.12 731.03-6.73L731.03-6.73L731.03-6.73Q731.03-3.57 728.35-1.50L728.35-1.50L728.35-1.50Q725.49 0.68 720.80 0.68L720.80 0.68L720.80 0.68Q718.01 0.68 716.35-0.39L716.35-0.39L716.35-0.39Q714.68-1.46 714.68-3.23L714.68-3.23L714.68-3.23Q714.68-5.00 716.01-6.09L716.01-6.09L716.01-6.09Q716.69-4.83 717.89-4.25L717.89-4.25L717.89-4.25Q719.10-3.67 720.65-3.67L720.65-3.67L720.65-3.67Q722.19-3.67 723.18-4.49L723.18-4.49L723.18-4.49Q724.17-5.30 724.17-6.90L724.17-6.90L724.17-6.90Q724.17-9.93 720.02-9.93L720.02-9.93L720.60-12.99L720.60-12.99Q725.56-13.80 725.56-16.25L725.56-16.25L725.56-16.25Q725.56-17.24 724.88-17.78L724.88-17.78L724.88-17.78Q724.20-18.33 722.91-18.33L722.91-18.33L722.91-18.33Q720.63-18.33 718.62-16.22L718.62-16.22L718.62-16.22Q717.98-16.39 717.71-16.85L717.71-16.85L717.71-16.85Q717.43-17.31 717.43-18.26L717.43-18.26L717.43-18.26Q717.43-19.21 718.11-20.11L718.11-20.11L718.11-20.11Q718.79-21.01 719.98-21.69L719.98-21.69L719.98-21.69Q722.53-23.12 725.97-23.12L725.97-23.12L725.97-23.12Q728.59-23.12 730.25-21.76L730.25-21.76L730.25-21.76Q731.99-20.37 731.99-18.29L731.99-18.29L731.99-18.29Q731.99-16.42 730.49-14.79L730.49-14.79L730.49-14.79Q728.99-13.16 726.55-12.27ZM737.36-6.22L745.89-17.99L745.89-17.99Q742.80-16.69 740.11-16.69L740.11-16.69L740.11-16.69Q737.43-16.69 736.03-17.61L736.03-17.61L736.03-17.61Q734.64-18.53 734.64-20.13L734.64-20.13L734.64-20.13Q734.64-21.11 734.93-21.86L734.93-21.86L734.93-21.86Q735.22-22.61 735.96-23.53L735.96-23.53L735.96-23.53Q736.30-22.85 740.93-22.51L740.93-22.51L740.93-22.51Q742.15-22.44 743.24-22.44L743.24-22.44L750.79-22.44L751.54-19.58L749.97-17.14L748.44-14.52L746.37-10.68L746.37-10.68Q744.67-7.45 744.18-5.98L744.18-5.98L744.18-5.98Q743.68-4.52 743.58-3.94L743.58-3.94L743.58-3.94Q743.38-3.09 743.38-2.36L743.38-2.36L743.38-2.36Q743.38-1.63 743.75-1.26L743.75-1.26L743.75-1.26Q743.07-0.03 741.06 0.51L741.06 0.51L741.06 0.51Q740.42 0.68 739.64 0.68L739.64 0.68L739.64 0.68Q738.85 0.68 738.17 0.37L738.17 0.37L738.17 0.37Q737.49 0.07 737.05-0.41L737.05-0.41L737.05-0.41Q736.20-1.43 736.20-2.60L736.20-2.60L736.20-2.60Q736.20-3.77 736.54-4.61L736.54-4.61L736.54-4.61Q736.88-5.44 737.36-6.22L737.36-6.22ZM761.70-12.27L761.70-12.27L761.70-12.27Q766.19-11.12 766.19-6.73L766.19-6.73L766.19-6.73Q766.19-3.57 763.50-1.50L763.50-1.50L763.50-1.50Q760.65 0.68 755.96 0.68L755.96 0.68L755.96 0.68Q753.17 0.68 751.50-0.39L751.50-0.39L751.50-0.39Q749.84-1.46 749.84-3.23L749.84-3.23L749.84-3.23Q749.84-5.00 751.16-6.09L751.16-6.09L751.16-6.09Q751.84-4.83 753.05-4.25L753.05-4.25L753.05-4.25Q754.26-3.67 755.80-3.67L755.80-3.67L755.80-3.67Q757.35-3.67 758.34-4.49L758.34-4.49L758.34-4.49Q759.32-5.30 759.32-6.90L759.32-6.90L759.32-6.90Q759.32-9.93 755.17-9.93L755.17-9.93L755.75-12.99L755.75-12.99Q760.72-13.80 760.72-16.25L760.72-16.25L760.72-16.25Q760.72-17.24 760.04-17.78L760.04-17.78L760.04-17.78Q759.36-18.33 758.06-18.33L758.06-18.33L758.06-18.33Q755.79-18.33 753.78-16.22L753.78-16.22L753.78-16.22Q753.13-16.39 752.86-16.85L752.86-16.85L752.86-16.85Q752.59-17.31 752.59-18.26L752.59-18.26L752.59-18.26Q752.59-19.21 753.27-20.11L753.27-20.11L753.27-20.11Q753.95-21.01 755.14-21.69L755.14-21.69L755.14-21.69Q757.69-23.12 761.12-23.12L761.12-23.12L761.12-23.12Q763.74-23.12 765.41-21.76L765.41-21.76L765.41-21.76Q767.14-20.37 767.14-18.29L767.14-18.29L767.14-18.29Q767.14-16.42 765.65-14.79L765.65-14.79L765.65-14.79Q764.15-13.16 761.70-12.27ZM779.79-12.27L779.79-12.27L779.79-12.27Q784.28-11.12 784.28-6.73L784.28-6.73L784.28-6.73Q784.28-3.57 781.59-1.50L781.59-1.50L781.59-1.50Q778.74 0.68 774.04 0.68L774.04 0.68L774.04 0.68Q771.26 0.68 769.59-0.39L769.59-0.39L769.59-0.39Q767.92-1.46 767.92-3.23L767.92-3.23L767.92-3.23Q767.92-5.00 769.25-6.09L769.25-6.09L769.25-6.09Q769.93-4.83 771.14-4.25L771.14-4.25L771.14-4.25Q772.34-3.67 773.89-3.67L773.89-3.67L773.89-3.67Q775.44-3.67 776.42-4.49L776.42-4.49L776.42-4.49Q777.41-5.30 777.41-6.90L777.41-6.90L777.41-6.90Q777.41-9.93 773.26-9.93L773.26-9.93L773.84-12.99L773.84-12.99Q778.80-13.80 778.80-16.25L778.80-16.25L778.80-16.25Q778.80-17.24 778.12-17.78L778.12-17.78L778.12-17.78Q777.44-18.33 776.15-18.33L776.15-18.33L776.15-18.33Q773.87-18.33 771.87-16.22L771.87-16.22L771.87-16.22Q771.22-16.39 770.95-16.85L770.95-16.85L770.95-16.85Q770.68-17.31 770.68-18.26L770.68-18.26L770.68-18.26Q770.68-19.21 771.36-20.11L771.36-20.11L771.36-20.11Q772.04-21.01 773.23-21.69L773.23-21.69L773.23-21.69Q775.78-23.12 779.21-23.12L779.21-23.12L779.21-23.12Q781.83-23.12 783.50-21.76L783.50-21.76L783.50-21.76Q785.23-20.37 785.23-18.29L785.23-18.29L785.23-18.29Q785.23-16.42 783.73-14.79L783.73-14.79L783.73-14.79Q782.24-13.16 779.79-12.27ZM787.41-8.09L787.41-8.09L787.41-8.09Q787.41-14.96 790.64-19.04L790.64-19.04L790.64-19.04Q793.87-23.12 799.41-23.12L799.41-23.12L799.41-23.12Q802.37-23.12 804.07-20.91L804.07-20.91L804.07-20.91Q805.77-18.70 805.77-15.01L805.77-15.01L805.77-15.01Q805.77-11.32 804.93-8.45L804.93-8.45L804.93-8.45Q804.10-5.58 802.60-3.54L802.60-3.54L802.60-3.54Q799.48 0.71 794.27 0.71L794.27 0.71L794.27 0.71Q790.77 0.71 789.09-1.45L789.09-1.45L789.09-1.45Q787.41-3.60 787.41-8.09ZM793.42-5.78L793.42-5.78L793.42-5.78Q793.42-2.35 794.55-2.35L794.55-2.35L794.55-2.35Q795.57-2.35 796.50-3.54L796.50-3.54L796.50-3.54Q797.44-4.73 798.18-6.73L798.18-6.73L798.18-6.73Q799.78-11.12 799.78-16.56L799.78-16.56L799.78-16.56Q799.78-18.39 799.49-19.23L799.49-19.23L799.49-19.23Q799.20-20.06 798.44-20.06L798.44-20.06L798.44-20.06Q797.67-20.06 796.77-18.73L796.77-18.73L796.77-18.73Q795.87-17.41 795.12-15.33L795.12-15.33L795.12-15.33Q793.42-10.61 793.42-5.78ZM824.26-17.48L824.26-17.48L824.26-17.48Q823.24-18.80 820.83-18.80L820.83-18.80L820.83-18.80Q817.67-18.80 815.93-16.59L815.93-16.59L815.93-16.59Q814.71-15.06 814.16-12.31L814.16-12.31L814.16-12.31Q815.05-13.77 816.22-14.54L816.22-14.54L816.22-14.54Q817.39-15.30 819.03-15.30L819.03-15.30L819.03-15.30Q820.66-15.30 821.69-14.72L821.69-14.72L821.69-14.72Q822.73-14.14 823.38-13.19L823.38-13.19L823.38-13.19Q824.60-11.42 824.60-8.91L824.60-8.91L824.60-8.91Q824.60-6.39 823.70-4.62L823.70-4.62L823.70-4.62Q822.80-2.86 821.41-1.67L821.41-1.67L821.41-1.67Q820.01-0.48 818.29 0.12L818.29 0.12L818.29 0.12Q816.58 0.71 814.96 0.71L814.96 0.71L814.96 0.71Q813.35 0.71 812.02 0.19L812.02 0.19L812.02 0.19Q810.70-0.34 809.74-1.39L809.74-1.39L809.74-1.39Q807.67-3.64 807.67-7.65L807.67-7.65L807.67-7.65Q807.67-10.34 808.59-13.09L808.59-13.09L808.59-13.09Q809.51-15.84 811.17-18.09L811.17-18.09L811.17-18.09Q812.84-20.33 815.12-21.76L815.12-21.76L815.12-21.76Q817.39-23.19 819.98-23.19L819.98-23.19L819.98-23.19Q822.56-23.19 824.02-22.37L824.02-22.37L824.02-22.37Q825.49-21.56 825.49-20.06L825.49-20.06L825.49-20.06Q825.49-18.43 824.26-17.48ZM814.55-10.10L814.55-10.10L814.55-10.10Q814.10-9.38 813.82-8.43L813.82-8.43L813.82-8.43Q813.55-7.48 813.55-6.14L813.55-6.14L813.55-6.14Q813.55-4.79 814.15-3.93L814.15-3.93L814.15-3.93Q814.74-3.06 815.69-3.06L815.69-3.06L815.69-3.06Q816.65-3.06 817.21-3.72L817.21-3.72L817.21-3.72Q817.77-4.39 818.07-5.30L818.07-5.30L818.07-5.30Q818.62-6.94 818.62-8.43L818.62-8.43L818.62-8.43Q818.62-9.93 818.09-10.78L818.09-10.78L818.09-10.78Q817.56-11.63 816.85-11.63L816.85-11.63L816.85-11.63Q816.14-11.63 815.57-11.22L815.57-11.22L815.57-11.22Q815.01-10.81 814.55-10.10ZM837.59-18.02L837.59-18.02L837.59-18.02Q838.81-18.02 839.77-17.75L839.77-17.75L839.77-17.75Q839.80-17.88 839.87-18.26L839.87-18.26L840.04-19.31L840.04-19.31Q840.17-19.99 840.38-21.11L840.38-21.11L840.92-23.80L847.69-24.48L843.91-4.76L843.91-4.76Q843.88-4.56 843.88-4.22L843.88-4.22L843.88-3.67L843.88-3.67Q843.88-2.92 844.25-2.36L844.25-2.36L844.25-2.36Q844.63-1.80 845.24-1.80L845.24-1.80L845.24-1.80Q844.56-0.20 842.49 0.48L842.49 0.48L842.49 0.48Q841.77 0.68 840.77 0.68L840.77 0.68L840.77 0.68Q839.77 0.68 838.85 0.15L838.85 0.15L838.85 0.15Q837.93-0.37 837.66-1.26L837.66-1.26L837.66-1.26Q837.11-0.37 836.03 0.15L836.03 0.15L836.03 0.15Q834.94 0.68 833.36 0.68L833.36 0.68L833.36 0.68Q831.78 0.68 830.47 0.27L830.47 0.27L830.47 0.27Q829.16-0.14 828.34-1.02L828.34-1.02L828.34-1.02Q826.85-2.75 826.85-6.70L826.85-6.70L826.85-6.70Q826.85-11.80 829.84-14.89L829.84-14.89L829.84-14.89Q832.83-18.02 837.59-18.02ZM837.35-15.98L837.35-15.98L837.35-15.98Q836.09-15.98 835.41-14.62L835.41-14.62L835.41-14.62Q834.73-13.26 834.04-9.89L834.04-9.89L834.04-9.89Q833.34-6.53 833.34-3.50L833.34-3.50L833.34-3.50Q833.34-1.43 834.56-1.43L834.56-1.43L834.56-1.43Q835.65-1.43 836.42-2.52L836.42-2.52L836.42-2.52Q837.18-3.60 837.49-5.41L837.49-5.41L839.32-15.37L839.32-15.37Q838.61-15.98 837.35-15.98ZM859.15-12.27L859.15-12.27L859.15-12.27Q863.63-11.12 863.63-6.73L863.63-6.73L863.63-6.73Q863.63-3.57 860.95-1.50L860.95-1.50L860.95-1.50Q858.09 0.68 853.40 0.68L853.40 0.68L853.40 0.68Q850.61 0.68 848.95-0.39L848.95-0.39L848.95-0.39Q847.28-1.46 847.28-3.23L847.28-3.23L847.28-3.23Q847.28-5.00 848.61-6.09L848.61-6.09L848.61-6.09Q849.29-4.83 850.49-4.25L850.49-4.25L850.49-4.25Q851.70-3.67 853.25-3.67L853.25-3.67L853.25-3.67Q854.79-3.67 855.78-4.49L855.78-4.49L855.78-4.49Q856.77-5.30 856.77-6.90L856.77-6.90L856.77-6.90Q856.77-9.93 852.62-9.93L852.62-9.93L853.20-12.99L853.20-12.99Q858.16-13.80 858.16-16.25L858.16-16.25L858.16-16.25Q858.16-17.24 857.48-17.78L857.48-17.78L857.48-17.78Q856.80-18.33 855.51-18.33L855.51-18.33L855.51-18.33Q853.23-18.33 851.22-16.22L851.22-16.22L851.22-16.22Q850.58-16.39 850.31-16.85L850.31-16.85L850.31-16.85Q850.03-17.31 850.03-18.26L850.03-18.26L850.03-18.26Q850.03-19.21 850.71-20.11L850.71-20.11L850.71-20.11Q851.39-21.01 852.58-21.69L852.58-21.69L852.58-21.69Q855.13-23.12 858.57-23.12L858.57-23.12L858.57-23.12Q861.19-23.12 862.85-21.76L862.85-21.76L862.85-21.76Q864.59-20.37 864.59-18.29L864.59-18.29L864.59-18.29Q864.59-16.42 863.09-14.79L863.09-14.79L863.09-14.79Q861.59-13.16 859.15-12.27ZM877.23-12.27L877.23-12.27L877.23-12.27Q881.72-11.12 881.72-6.73L881.72-6.73L881.72-6.73Q881.72-3.57 879.04-1.50L879.04-1.50L879.04-1.50Q876.18 0.68 871.49 0.68L871.49 0.68L871.49 0.68Q868.70 0.68 867.03-0.39L867.03-0.39L867.03-0.39Q865.37-1.46 865.37-3.23L865.37-3.23L865.37-3.23Q865.37-5.00 866.69-6.09L866.69-6.09L866.69-6.09Q867.37-4.83 868.58-4.25L868.58-4.25L868.58-4.25Q869.79-3.67 871.33-3.67L871.33-3.67L871.33-3.67Q872.88-3.67 873.87-4.49L873.87-4.49L873.87-4.49Q874.85-5.30 874.85-6.90L874.85-6.90L874.85-6.90Q874.85-9.93 870.71-9.93L870.71-9.93L871.28-12.99L871.28-12.99Q876.25-13.80 876.25-16.25L876.25-16.25L876.25-16.25Q876.25-17.24 875.57-17.78L875.57-17.78L875.57-17.78Q874.89-18.33 873.60-18.33L873.60-18.33L873.60-18.33Q871.32-18.33 869.31-16.22L869.31-16.22L869.31-16.22Q868.67-16.39 868.39-16.85L868.39-16.85L868.39-16.85Q868.12-17.31 868.12-18.26L868.12-18.26L868.12-18.26Q868.12-19.21 868.80-20.11L868.80-20.11L868.80-20.11Q869.48-21.01 870.67-21.69L870.67-21.69L870.67-21.69Q873.22-23.12 876.66-23.12L876.66-23.12L876.66-23.12Q879.27-23.12 880.94-21.76L880.94-21.76L880.94-21.76Q882.67-20.37 882.67-18.29L882.67-18.29L882.67-18.29Q882.67-16.42 881.18-14.79L881.18-14.79L881.18-14.79Q879.68-13.16 877.23-12.27ZM888.05-6.22L896.58-17.99L896.58-17.99Q893.49-16.69 890.80-16.69L890.80-16.69L890.80-16.69Q888.11-16.69 886.72-17.61L886.72-17.61L886.72-17.61Q885.33-18.53 885.33-20.13L885.33-20.13L885.33-20.13Q885.33-21.11 885.61-21.86L885.61-21.86L885.61-21.86Q885.90-22.61 886.65-23.53L886.65-23.53L886.65-23.53Q886.99-22.85 891.62-22.51L891.62-22.51L891.62-22.51Q892.84-22.44 893.93-22.44L893.93-22.44L901.48-22.44L902.22-19.58L900.66-17.14L899.13-14.52L897.06-10.68L897.06-10.68Q895.36-7.45 894.86-5.98L894.86-5.98L894.86-5.98Q894.37-4.52 894.27-3.94L894.27-3.94L894.27-3.94Q894.06-3.09 894.06-2.36L894.06-2.36L894.06-2.36Q894.06-1.63 894.44-1.26L894.44-1.26L894.44-1.26Q893.76-0.03 891.75 0.51L891.75 0.51L891.75 0.51Q891.11 0.68 890.32 0.68L890.32 0.68L890.32 0.68Q889.54 0.68 888.86 0.37L888.86 0.37L888.86 0.37Q888.18 0.07 887.74-0.41L887.74-0.41L887.74-0.41Q886.89-1.43 886.89-2.60L886.89-2.60L886.89-2.60Q886.89-3.77 887.23-4.61L887.23-4.61L887.23-4.61Q887.57-5.44 888.05-6.22L888.05-6.22ZM911.71-18.02L911.71-18.02L911.71-18.02Q912.93-18.02 913.89-17.75L913.89-17.75L913.89-17.75Q913.92-17.88 913.99-18.26L913.99-18.26L914.16-19.31L914.16-19.31Q914.29-19.99 914.50-21.11L914.50-21.11L915.04-23.80L921.81-24.48L918.03-4.76L918.03-4.76Q918.00-4.56 918.00-4.22L918.00-4.22L918.00-3.67L918.00-3.67Q918.00-2.92 918.37-2.36L918.37-2.36L918.37-2.36Q918.75-1.80 919.36-1.80L919.36-1.80L919.36-1.80Q918.68-0.20 916.61 0.48L916.61 0.48L916.61 0.48Q915.89 0.68 914.89 0.68L914.89 0.68L914.89 0.68Q913.89 0.68 912.97 0.15L912.97 0.15L912.97 0.15Q912.05-0.37 911.78-1.26L911.78-1.26L911.78-1.26Q911.23-0.37 910.15 0.15L910.15 0.15L910.15 0.15Q909.06 0.68 907.48 0.68L907.48 0.68L907.48 0.68Q905.90 0.68 904.59 0.27L904.59 0.27L904.59 0.27Q903.28-0.14 902.46-1.02L902.46-1.02L902.46-1.02Q900.97-2.75 900.97-6.70L900.97-6.70L900.97-6.70Q900.97-11.80 903.96-14.89L903.96-14.89L903.96-14.89Q906.95-18.02 911.71-18.02ZM911.47-15.98L911.47-15.98L911.47-15.98Q910.21-15.98 909.53-14.62L909.53-14.62L909.53-14.62Q908.85-13.26 908.16-9.89L908.16-9.89L908.16-9.89Q907.46-6.53 907.46-3.50L907.46-3.50L907.46-3.50Q907.46-1.43 908.68-1.43L908.68-1.43L908.68-1.43Q909.77-1.43 910.54-2.52L910.54-2.52L910.54-2.52Q911.30-3.60 911.61-5.41L911.61-5.41L913.44-15.37L913.44-15.37Q912.73-15.98 911.47-15.98Z" fill="url(#editing-glowing-gradient)"></path>
    </g>
  </g>
  <style>text {
  font-size: 64px;
  font-family: Arial Black;
  dominant-baseline: central;
  text-anchor: middle;
}</style>
  <text id="text905" y="259.98523" x="-347.32199" style="font-style:normal;font-weight:normal;font-size:10.5833px;line-height:1.25;font-family:sans-serif;fill:#000000;fill-opacity:1;stroke:none;stroke-width:0.264583" xml:space="preserve">
    <tspan id="tspan907" style="font-size:352.778px;stroke-width:0.264583" y="259.98523" x="-347.32199" sodipodi:role="line">FLAG</tspan>
  </text>
</svg>
